<svg viewBox="0 0 24 24" fill="none" xmlns="http://www.w3.org/2000/svg" class="md:w-8 md:h-8 text-action-primary mb-4"><path d="M9.78252 3.8859C9.11029 5.72085 8.6547 8.23798 8.57259 11.0752H15.4274C15.3453 8.23798 14.8897 5.72085 14.2175 3.8859C13.8439 2.86603 13.421 2.10572 12.9982 1.61758C12.573 1.12675 12.2327 1.00098 12 1.00098C11.7673 1.00098 11.427 1.12675 11.0018 1.61758C10.579 2.10572 10.1561 2.86603 9.78252 3.8859Z" fill="#009861"/><path d="M1 11.0752H6.71539C6.79775 8.06454 7.27922 5.32384 8.03879 3.25049C8.28144 2.58817 8.55846 1.97734 8.87036 1.44071C4.58359 2.70239 1.3828 6.48968 1 11.0752Z" fill="#009861"/><path d="M1 12.9267C1.38282 17.5123 4.58359 21.2995 8.87034 22.5612C8.55845 22.0246 8.28143 21.4138 8.03879 20.7515C7.27922 18.6781 6.79775 15.9374 6.71539 12.9267H1Z" fill="#009861"/><path d="M15.1297 22.5612C19.4164 21.2995 22.6172 17.5123 23 12.9267H17.2846C17.2022 15.9374 16.7208 18.6781 15.9612 20.7515C15.7186 21.4138 15.4415 22.0246 15.1297 22.5612Z" fill="#009861"/><path d="M23 11.0752C22.6172 6.48968 19.4164 2.70239 15.1296 1.44072C15.4415 1.97734 15.7186 2.58817 15.9612 3.25049C16.7208 5.32384 17.2022 8.06454 17.2846 11.0752H23Z" fill="#009861"/><path d="M14.2175 20.1161C14.8897 18.2811 15.3453 15.764 15.4274 12.9267H8.57259C8.6547 15.764 9.11029 18.2811 9.78252 20.1161C10.1561 21.1359 10.579 21.8962 11.0018 22.3844C11.427 22.8752 11.7673 23.001 12 23.001C12.2327 23.001 12.573 22.8752 12.9982 22.3844C13.421 21.8962 13.8439 21.1359 14.2175 20.1161Z" fill="#009861"/></svg>