<svg viewBox="0 0 24 24" fill="none" xmlns="http://www.w3.org/2000/svg" class="md:w-8 md:h-8 text-action-primary mb-4"><path d="M9.15024 6.5C9.15024 8.01538 9.68106 9.40679 10.5669 10.4984C9.94804 10.8189 9.24529 11 8.50024 11C6.01496 11 4.00024 8.98528 4.00024 6.5C4.00024 4.01472 6.01496 2 8.50024 2C9.24529 2 9.94804 2.18107 10.5669 2.50159C9.68106 3.59321 9.15024 4.98462 9.15024 6.5Z" fill="#009861"/><path d="M2.07684 13.6822C3.3955 12.9957 5.61508 12.6253 7.50191 12.527C6.6553 13.2491 6.15052 14.3149 6.15044 15.456L6.15012 19.9994C6.15012 20.7317 6.35478 21.4164 6.71 21.9993H3.00012C1.89615 21.9994 1.00012 21.1034 1.00012 19.9995L1.00045 15.4561C1.0005 14.7105 1.41549 14.0266 2.07684 13.6822Z" fill="#009861"/><path d="M11.0002 6.5C11.0002 4.01472 13.015 2 15.5002 2C17.9855 2 20.0002 4.01472 20.0002 6.5C20.0002 8.98528 17.9855 11 15.5002 11C13.015 11 11.0002 8.98528 11.0002 6.5Z" fill="#009861"/><path d="M9.07684 13.6822C10.638 12.8694 13.4618 12.4998 15.5013 12.5C17.5405 12.5002 20.3638 12.8699 21.924 13.6824C22.5853 14.0268 23.0002 14.7107 23.0002 15.4563V19.9993C23.0002 21.1033 22.1042 21.9993 21.0002 21.9993H10.0001C8.89615 21.9994 8.00012 21.1034 8.00012 19.9995L8.00045 15.4561C8.0005 14.7105 8.41549 14.0266 9.07684 13.6822Z" fill="#009861"/></svg>